<svg width="30" height="30" viewBox="0 0 30 30" fill="none" xmlns="http://www.w3.org/2000/svg">
<path d="M5.03125 26.25L0.84375 11.25H8.4375L13.9375 3.0625C14.0417 2.89583 14.1875 2.76042 14.375 2.65625C14.5625 2.55208 14.7604 2.5 14.9688 2.5C15.1771 2.5 15.375 2.55208 15.5625 2.65625C15.75 2.76042 15.8958 2.89583 16 3.0625L21.5 11.25H29.1563L24.9688 26.25H5.03125ZM11.4688 11.25H18.5L14.9688 6L11.4688 11.25ZM15 21.25C15.6875 21.25 16.2762 21.0054 16.7662 20.5163C17.2554 20.0263 17.5 19.4375 17.5 18.75C17.5 18.0625 17.2554 17.4738 16.7662 16.9837C16.2762 16.4946 15.6875 16.25 15 16.25C14.3125 16.25 13.7242 16.4946 13.235 16.9837C12.745 17.4738 12.5 18.0625 12.5 18.75C12.5 19.4375 12.745 20.0263 13.235 20.5163C13.7242 21.0054 14.3125 21.25 15 21.25Z" fill="#FAFAFA"/>
</svg>
