<svg width="34" height="34" viewBox="0 0 34 34" fill="none" xmlns="http://www.w3.org/2000/svg">
<path fill-rule="evenodd" clip-rule="evenodd" d="M24.5556 0C27.0604 0 29.4626 0.995037 31.2338 2.76621C33.005 4.53739 34 6.93962 34 9.44444V24.5556C34 27.0604 33.005 29.4626 31.2338 31.2338C29.4626 33.005 27.0604 34 24.5556 34H9.44444C6.93962 34 4.53739 33.005 2.76621 31.2338C0.995037 29.4626 0 27.0604 0 24.5556V9.44444C0 6.93962 0.995037 4.53739 2.76621 2.76621C4.53739 0.995037 6.93962 0 9.44444 0H24.5556ZM24.5556 3.77778H9.44444C7.94155 3.77778 6.50021 4.3748 5.43751 5.43751C4.3748 6.50021 3.77778 7.94155 3.77778 9.44444V24.5556C3.77778 26.0584 4.3748 27.4998 5.43751 28.5625C6.50021 29.6252 7.94155 30.2222 9.44444 30.2222H24.5556C26.0584 30.2222 27.4998 29.6252 28.5625 28.5625C29.6252 27.4998 30.2222 26.0584 30.2222 24.5556V9.44444C30.2222 7.94155 29.6252 6.50021 28.5625 5.43751C27.4998 4.3748 26.0584 3.77778 24.5556 3.77778ZM17 9.44444C19.0039 9.44444 20.9256 10.2405 22.3426 11.6574C23.7595 13.0744 24.5556 14.9961 24.5556 17C24.5556 19.0039 23.7595 20.9256 22.3426 22.3426C20.9256 23.7595 19.0039 24.5556 17 24.5556C14.9961 24.5556 13.0744 23.7595 11.6574 22.3426C10.2405 20.9256 9.44444 19.0039 9.44444 17C9.44444 14.9961 10.2405 13.0744 11.6574 11.6574C13.0744 10.2405 14.9961 9.44444 17 9.44444ZM17 13.2222C15.9981 13.2222 15.0372 13.6202 14.3287 14.3287C13.6202 15.0372 13.2222 15.9981 13.2222 17C13.2222 18.0019 13.6202 18.9628 14.3287 19.6713C15.0372 20.3798 15.9981 20.7778 17 20.7778C18.0019 20.7778 18.9628 20.3798 19.6713 19.6713C20.3798 18.9628 20.7778 18.0019 20.7778 17C20.7778 15.9981 20.3798 15.0372 19.6713 14.3287C18.9628 13.6202 18.0019 13.2222 17 13.2222ZM25.5 6.61111C26.001 6.61111 26.4814 6.81012 26.8356 7.16435C27.1899 7.51859 27.3889 7.99904 27.3889 8.5C27.3889 9.00096 27.1899 9.48141 26.8356 9.83565C26.4814 10.1899 26.001 10.3889 25.5 10.3889C24.999 10.3889 24.5186 10.1899 24.1644 9.83565C23.8101 9.48141 23.6111 9.00096 23.6111 8.5C23.6111 7.99904 23.8101 7.51859 24.1644 7.16435C24.5186 6.81012 24.999 6.61111 25.5 6.61111Z" fill="#FAFAFA"/>
</svg>
